<svg xmlns="http://www.w3.org/2000/svg" xmlns:xlink="http://www.w3.org/1999/xlink" width="500" zoomAndPan="magnify" viewBox="0 0 375 299.999988" height="400" preserveAspectRatio="xMidYMid meet" version="1.0"><defs><clipPath id="id1"><path d="M 5.285156 19.09375 L 369.785156 19.09375 L 369.785156 280.84375 L 5.285156 280.84375 Z M 5.285156 19.09375 " clip-rule="nonzero"/></clipPath></defs><g clip-path="url(#id1)"><path fill="#000000" d="M 7.679688 265.046875 C 6.96875 265.519531 6.011719 265.328125 5.542969 264.621094 C 5.070312 263.914062 5.261719 262.957031 5.96875 262.484375 L 6.015625 262.453125 C 16.96875 255.046875 27.929688 247.648438 41.816406 245.851562 C 48.753906 244.957031 56.347656 245.480469 63.9375 246.773438 C 71.476562 248.058594 79.027344 250.105469 85.925781 252.273438 C 88.230469 252.996094 90.796875 253.847656 93.265625 254.664062 C 103.410156 258.03125 111.847656 260.828125 118.046875 259.25 L 118.265625 259.191406 C 114.597656 256.207031 111.703125 253.078125 109.464844 249.945312 C 104.605469 243.128906 102.851562 236.269531 103.039062 230.777344 C 103.113281 228.488281 103.527344 226.425781 104.199219 224.636719 C 105.160156 222.078125 106.652344 220.054688 108.460938 218.679688 C 110.328125 217.265625 112.523438 216.539062 114.824219 216.613281 C 115.925781 216.652344 117.050781 216.871094 118.160156 217.292969 C 121.714844 218.621094 125.21875 221.988281 127.867188 226.28125 C 130.40625 230.386719 132.203125 235.386719 132.535156 240.269531 C 132.878906 245.355469 131.640625 250.320312 129.199219 254.277344 C 127.859375 256.445312 126.15625 258.316406 124.152344 259.742188 C 125.667969 260.765625 127.296875 261.769531 129.039062 262.742188 C 138.414062 267.957031 151.179688 272.246094 166.113281 274.882812 C 179.9375 277.316406 195.585938 278.332031 212.101562 277.347656 C 229.996094 276.28125 248.90625 272.875 266.753906 267.171875 C 283.269531 261.898438 298.875 254.65625 311.921875 245.480469 C 322.960938 237.714844 332.167969 228.566406 339.621094 218.515625 C 341.328125 213.433594 344.207031 204.855469 345.1875 196.125 C 346.074219 188.246094 345.421875 180.222656 343.28125 173.515625 C 341.332031 167.417969 338.160156 162.4375 333.804688 159.722656 C 332.804688 159.101562 331.734375 158.597656 330.613281 158.199219 C 331.132812 164.28125 331.359375 170.238281 331.21875 175.800781 C 331.058594 182.191406 330.410156 188.0625 329.132812 193.648438 C 327.851562 199.265625 325.9375 204.59375 323.257812 209.875 C 320.394531 215.507812 316.648438 221.105469 312.632812 225.335938 C 308.988281 229.171875 305.082031 231.917969 301.324219 232.652344 C 297.503906 233.402344 293.953125 232.109375 290.8125 229.625 C 287.265625 226.8125 284.242188 222.429688 281.980469 217.816406 C 279.84375 213.460938 278.375 208.878906 277.769531 204.089844 L 277.765625 204.089844 C 277.203125 199.632812 277.398438 195.003906 278.515625 190.214844 C 279.734375 184.996094 282.050781 179.601562 285.589844 174.578125 C 288.753906 170.085938 292.898438 165.894531 298.105469 162.398438 C 303.996094 158.441406 311.261719 155.378906 318.285156 154.34375 C 321.316406 153.898438 324.316406 153.828125 327.152344 154.222656 C 326.480469 147.898438 325.519531 141.492188 324.355469 135.308594 C 323.085938 128.574219 321.582031 122.121094 319.960938 115.9375 C 318.332031 109.71875 316.585938 103.773438 314.84375 98.074219 C 313.105469 92.390625 311.367188 86.941406 309.066406 81.511719 C 306.777344 76.113281 303.921875 70.71875 299.9375 65.09375 C 299.660156 64.703125 299.382812 64.3125 299.09375 63.921875 C 294.671875 64.210938 290.074219 65.222656 285.488281 66.792969 C 279.542969 68.828125 273.621094 71.800781 268.113281 75.359375 C 262.820312 78.785156 257.914062 82.753906 253.6875 87.757812 C 249.460938 92.753906 245.890625 98.800781 243.257812 106.398438 C 237.917969 121.777344 236.332031 143.621094 234.746094 165.46875 C 238.476562 173.328125 242.929688 181.339844 247.855469 188.945312 C 254.777344 199.628906 262.625 209.488281 270.707031 216.964844 C 277.640625 223.378906 284.804688 228.082031 290.625 231.902344 C 299.578125 237.78125 305.589844 241.726562 303.589844 247.257812 C 302.078125 251.429688 295.171875 256.007812 285.578125 259.886719 C 276.28125 263.644531 264.335938 266.859375 252.359375 268.46875 C 240.203125 270.097656 228.003906 270.078125 216.832031 268.425781 C 205.878906 266.808594 195.886719 263.621094 187.851562 258.878906 C 183.035156 256.035156 178.925781 252.644531 175.410156 248.789062 C 171.050781 246.613281 167.066406 244.171875 163.386719 241.46875 C 155.753906 235.863281 149.441406 229.144531 143.773438 221.378906 C 138.25 213.808594 133.351562 205.246094 129.246094 196.308594 C 124.960938 186.992188 121.539062 177.273438 119.164062 167.855469 C 116.867188 158.75 115.542969 149.90625 115.117188 141.34375 C 114.679688 132.519531 115.203125 124.007812 116.59375 115.832031 C 117.964844 107.746094 120.1875 99.984375 123.527344 92.429688 C 126.855469 84.882812 131.304688 77.527344 137.128906 70.25 C 143.125 62.753906 150.570312 55.359375 159.054688 48.6875 C 167.019531 42.425781 175.917969 36.78125 185.429688 32.261719 C 195.15625 27.640625 205.519531 24.199219 215.910156 22.003906 C 226.492188 19.765625 237.109375 18.820312 247.121094 19.226562 C 254.605469 19.53125 261.738281 20.589844 267.957031 21.886719 C 278.230469 24.027344 286.042969 26.816406 288.851562 27.921875 C 289.433594 28.148438 289.898438 28.371094 290.253906 28.605469 C 294.914062 28.964844 299.46875 29.765625 303.851562 31.0625 C 315.203125 34.429688 325.304688 41.125 333.933594 50.066406 C 343.21875 59.695312 350.804688 71.929688 356.417969 85.417969 C 360.960938 96.332031 364.21875 108.078125 365.988281 120.214844 C 368.238281 127.722656 369.550781 135.882812 369.753906 144.417969 C 369.992188 154.507812 368.683594 165.128906 365.546875 175.867188 C 363.042969 184.445312 359.378906 193.078125 355.648438 200.640625 C 349.839844 212.402344 343.820312 221.660156 341.75 224.09375 L 341.671875 224.1875 C 340.589844 225.433594 339.664062 225.636719 338.789062 224.875 C 338.742188 224.835938 338.699219 224.792969 338.660156 224.75 C 331.675781 233.332031 323.371094 241.183594 313.691406 247.988281 C 300.394531 257.339844 284.5 264.71875 267.683594 270.089844 C 249.578125 275.875 230.410156 279.332031 212.28125 280.410156 C 195.5 281.410156 179.609375 280.382812 165.585938 277.90625 C 150.320312 275.214844 137.222656 270.800781 127.542969 265.414062 C 125.234375 264.132812 123.121094 262.789062 121.183594 261.410156 C 120.417969 261.742188 119.625 262.015625 118.800781 262.226562 C 111.75 264.019531 102.921875 261.089844 92.300781 257.566406 C 90.070312 256.828125 87.753906 256.058594 85.007812 255.195312 C 78.21875 253.066406 70.800781 251.054688 63.417969 249.792969 C 56.082031 248.542969 48.789062 248.03125 42.195312 248.882812 C 29.0625 250.582031 18.398438 257.78125 7.738281 264.988281 L 7.675781 265.035156 Z M 121.480469 257.816406 C 123.535156 256.589844 125.269531 254.804688 126.589844 252.664062 C 128.699219 249.246094 129.769531 244.925781 129.46875 240.476562 C 129.171875 236.097656 127.546875 231.601562 125.257812 227.890625 C 122.945312 224.152344 119.992188 221.257812 117.089844 220.167969 C 116.292969 219.867188 115.5 219.710938 114.726562 219.679688 C 113.140625 219.628906 111.617188 220.132812 110.316406 221.121094 C 108.957031 222.152344 107.828125 223.707031 107.074219 225.707031 C 106.515625 227.199219 106.171875 228.929688 106.105469 230.871094 C 105.9375 235.777344 107.542969 241.953125 111.96875 248.164062 C 114.304688 251.4375 117.421875 254.714844 121.476562 257.816406 Z M 345.605469 209.671875 C 353.121094 197.414062 358.308594 184.105469 361.296875 170.507812 C 364.382812 156.472656 365.128906 142.144531 363.84375 128.203125 C 363.621094 125.761719 363.332031 123.328125 362.984375 120.914062 C 362.445312 119.128906 361.851562 117.378906 361.203125 115.675781 C 358.308594 108.050781 354.355469 101.253906 349.914062 95.285156 C 344.511719 88.023438 338.382812 81.988281 332.535156 77.171875 C 327.230469 72.808594 322.171875 69.457031 317.089844 67.210938 C 312.429688 65.148438 307.746094 64.011719 302.816406 63.859375 C 306.757812 69.496094 309.605469 74.910156 311.898438 80.324219 C 314.253906 85.878906 316.019531 91.410156 317.785156 97.183594 C 319.542969 102.9375 321.300781 108.929688 322.9375 115.164062 C 324.578125 121.429688 326.101562 127.953125 327.382812 134.742188 C 328.617188 141.296875 329.628906 148.128906 330.308594 154.871094 C 332.125 155.382812 333.847656 156.121094 335.4375 157.109375 C 340.449219 160.230469 344.046875 165.8125 346.210938 172.585938 C 348.484375 179.707031 349.179688 188.179688 348.253906 196.460938 C 347.734375 201.078125 346.714844 205.628906 345.605469 209.667969 Z M 359.824219 105.199219 C 358.160156 98.800781 356.066406 92.574219 353.582031 86.601562 C 348.105469 73.453125 340.730469 61.546875 331.71875 52.207031 C 323.449219 43.628906 313.796875 37.222656 302.984375 34.019531 C 298.226562 32.609375 293.238281 31.816406 288.128906 31.554688 L 287.941406 31.550781 C 285.4375 31.46875 280.03125 31.292969 273.707031 32.917969 C 272.28125 33.285156 270.800781 33.742188 269.289062 34.292969 C 275.070312 36.972656 280.574219 40.6875 285.589844 44.929688 C 291.320312 49.773438 296.425781 55.320312 300.570312 60.777344 C 300.9375 60.765625 301.304688 60.765625 301.667969 60.765625 C 307.460938 60.765625 312.917969 62.003906 318.328125 64.398438 C 323.671875 66.761719 328.960938 70.257812 334.484375 74.804688 C 340.503906 79.761719 346.816406 85.980469 352.382812 93.460938 C 355.074219 97.078125 357.59375 100.996094 359.824219 105.203125 Z M 268.332031 29.835938 C 272.546875 29.089844 276.777344 28.613281 280.976562 28.445312 C 277.367188 27.3125 272.695312 26.015625 267.332031 24.898438 C 261.25 23.632812 254.289062 22.59375 247 22.300781 C 237.246094 21.90625 226.882812 22.832031 216.535156 25.019531 C 206.386719 27.164062 196.253906 30.527344 186.742188 35.050781 C 177.457031 39.460938 168.753906 44.984375 160.957031 51.117188 C 152.632812 57.660156 145.355469 64.882812 139.519531 72.171875 C 133.886719 79.214844 129.574219 86.34375 126.339844 93.679688 C 123.105469 101 120.953125 108.515625 119.625 116.347656 C 118.265625 124.320312 117.757812 132.613281 118.1875 141.210938 C 118.601562 149.554688 119.894531 158.195312 122.148438 167.121094 C 124.484375 176.382812 127.839844 185.921875 132.039062 195.046875 C 136.066406 203.804688 140.859375 212.191406 146.253906 219.585938 C 151.730469 227.09375 157.835938 233.589844 165.203125 239 C 166.886719 240.238281 168.640625 241.417969 170.464844 242.539062 C 169.910156 241.730469 169.375 240.90625 168.859375 240.070312 C 164.230469 232.558594 161.066406 223.933594 158.804688 214.640625 C 156.484375 205.121094 155.105469 194.875 154.878906 184.320312 C 154.667969 174.351562 155.484375 164.121094 157.511719 153.984375 C 159.503906 144.015625 162.671875 134.113281 166.714844 124.410156 C 168.894531 119.183594 171.328125 114.015625 173.964844 108.921875 C 174.183594 105.125 174.617188 101.355469 175.265625 97.636719 C 176.824219 88.6875 179.632812 80.039062 183.765625 72.097656 C 187.921875 64.105469 193.425781 56.820312 199.726562 50.628906 C 206.195312 44.277344 213.511719 39.082031 221.085938 35.460938 C 228.644531 31.847656 236.460938 29.800781 244.21875 29.414062 C 249.996094 29.121094 255.742188 29.75 261.324219 31.335938 C 263.648438 30.757812 265.988281 30.257812 268.328125 29.84375 Z M 260.816406 34.632812 C 250.433594 37.339844 240.390625 41.605469 231.601562 46.753906 C 221.15625 52.878906 212.472656 60.257812 204.972656 68.445312 C 197.457031 76.648438 191.101562 85.6875 185.332031 95.085938 C 182.386719 99.886719 179.597656 104.78125 177.003906 109.746094 C 176.730469 115.03125 176.878906 120.355469 177.429688 125.640625 C 178.371094 134.667969 180.496094 143.597656 183.371094 152.433594 C 186.257812 161.300781 189.898438 170.082031 193.859375 178.789062 C 197.8125 187.492188 202.085938 196.109375 207.027344 204.289062 C 211.953125 212.441406 217.539062 220.148438 224.136719 227.058594 C 228.433594 231.5625 233.164062 235.730469 237.398438 239.460938 C 242.191406 243.6875 246.359375 247.363281 248.664062 250.410156 C 251.210938 253.773438 251.714844 256.53125 248.945312 258.625 C 245.675781 261.097656 236.382812 261.832031 225.191406 261.042969 C 214.398438 260.285156 201.683594 258.164062 190.898438 254.890625 C 188.488281 254.160156 186.183594 253.371094 183.960938 252.527344 C 185.664062 253.851562 187.480469 255.089844 189.417969 256.234375 C 197.101562 260.761719 206.710938 263.820312 217.28125 265.382812 C 228.1875 266.992188 240.09375 267.015625 251.957031 265.425781 C 263.675781 263.851562 275.355469 260.707031 284.441406 257.039062 C 293.257812 253.476562 299.507812 249.527344 300.703125 246.214844 C 301.878906 242.960938 296.683594 239.546875 288.945312 234.46875 C 283.035156 230.585938 275.757812 225.808594 268.632812 219.214844 C 260.34375 211.550781 252.328125 201.488281 245.289062 190.617188 C 237.683594 178.882812 231.191406 166.179688 226.6875 154.511719 C 222.339844 143.238281 219.839844 132.925781 218.710938 123.339844 C 217.582031 113.746094 217.824219 104.867188 218.953125 96.464844 C 220.109375 87.890625 222.191406 79.816406 225.285156 72.417969 C 228.269531 65.28125 232.199219 58.761719 237.148438 53.019531 C 241.984375 47.402344 247.785156 42.539062 253.769531 38.679688 C 256.101562 37.175781 258.46875 35.820312 260.816406 34.632812 Z M 230.050781 44.105469 C 237.664062 39.644531 246.191406 35.828125 255.074219 33.074219 C 251.542969 32.492188 247.960938 32.296875 244.363281 32.476562 C 237.015625 32.84375 229.601562 34.785156 222.414062 38.222656 C 215.148438 41.691406 208.117188 46.695312 201.886719 52.816406 C 195.816406 58.777344 190.515625 65.800781 186.503906 73.515625 C 182.519531 81.175781 179.808594 89.519531 178.304688 98.152344 C 178.082031 99.421875 177.890625 100.699219 177.71875 101.980469 C 179.324219 99.117188 180.992188 96.289062 182.710938 93.488281 C 188.5625 83.949219 195.027344 74.765625 202.710938 66.378906 C 210.414062 57.976562 219.328125 50.398438 230.050781 44.109375 Z M 173.804688 116.132812 C 172.300781 119.257812 170.886719 122.410156 169.5625 125.582031 C 165.597656 135.09375 162.492188 144.800781 160.535156 154.582031 C 158.546875 164.527344 157.746094 174.527344 157.953125 184.253906 C 158.171875 194.574219 159.523438 204.597656 161.792969 213.914062 C 163.988281 222.917969 167.03125 231.246094 171.476562 238.453125 C 173.195312 241.242188 175.125 243.867188 177.304688 246.300781 C 181.707031 248.464844 186.507812 250.351562 191.789062 251.953125 C 202.335938 255.15625 214.800781 257.234375 225.398438 257.976562 C 235.914062 258.714844 244.429688 258.1875 247.097656 256.171875 C 248.0625 255.441406 247.59375 254.085938 246.210938 252.261719 C 244.074219 249.441406 240.023438 245.871094 235.367188 241.765625 C 231.074219 237.976562 226.273438 233.746094 221.910156 229.179688 C 215.136719 222.085938 209.417969 214.199219 204.394531 205.878906 C 199.382812 197.589844 195.058594 188.863281 191.054688 180.058594 C 187.054688 171.261719 183.375 162.382812 180.449219 153.386719 C 177.515625 144.363281 175.339844 135.226562 174.371094 125.957031 C 174.03125 122.691406 173.839844 119.414062 173.804688 116.136719 Z M 229.554688 153.410156 C 230.339844 155.449219 231.1875 157.523438 232.097656 159.617188 C 233.582031 139.503906 235.351562 119.839844 240.363281 105.402344 C 243.136719 97.40625 246.894531 91.039062 251.34375 85.773438 C 255.789062 80.519531 260.917969 76.363281 266.449219 72.789062 C 272.167969 69.089844 278.324219 66 284.507812 63.882812 C 288.660156 62.460938 292.828125 61.472656 296.894531 61.03125 C 293.121094 56.273438 288.617188 51.503906 283.609375 47.269531 C 278.097656 42.617188 271.992188 38.625 265.59375 36.035156 L 265.28125 35.910156 C 262.042969 37.351562 258.710938 39.15625 255.433594 41.269531 C 249.679688 44.984375 244.109375 49.648438 239.472656 55.03125 C 234.746094 60.515625 230.988281 66.753906 228.128906 73.601562 C 225.132812 80.757812 223.121094 88.574219 222.003906 96.882812 C 220.90625 105.027344 220.671875 113.65625 221.769531 122.996094 C 222.871094 132.347656 225.304688 142.40625 229.554688 153.410156 Z M 328.15625 175.726562 C 328.300781 169.953125 328.042969 163.734375 327.46875 157.382812 C 324.722656 156.90625 321.757812 156.945312 318.734375 157.390625 C 312.164062 158.355469 305.351562 161.230469 299.820312 164.949219 C 294.949219 168.214844 291.074219 172.140625 288.113281 176.34375 C 284.8125 181.027344 282.652344 186.058594 281.519531 190.914062 C 280.492188 195.324219 280.308594 199.601562 280.828125 203.714844 L 280.824219 203.714844 C 281.378906 208.144531 282.753906 212.402344 284.746094 216.464844 C 286.824219 220.703125 289.566406 224.703125 292.734375 227.214844 C 295.191406 229.164062 297.910156 230.1875 300.742188 229.632812 C 303.828125 229.027344 307.1875 226.613281 310.410156 223.214844 C 314.21875 219.207031 317.789062 213.871094 320.523438 208.488281 C 323.09375 203.429688 324.921875 198.332031 326.148438 192.972656 C 327.378906 187.578125 328.003906 181.910156 328.160156 175.726562 Z M 328.15625 175.726562 " fill-opacity="1" fill-rule="nonzero"/></g></svg>